<svg width="150" height="150" fill="none" xmlns="http://www.w3.org/2000/svg"><rect width="150" height="150" rx="30" fill="#F4F6F7"/><path d="M96.953 62.32c0 11.619-9.419 21.038-21.038 21.038-11.62 0-21.039-9.42-21.039-21.039 0-11.619 3.865-21.038 21.039-21.038s21.038 9.42 21.038 21.038z" fill="url(#paint0_linear_1_358)"/><ellipse cx="75.916" cy="45.575" rx="9.875" ry="11.163" fill="url(#paint1_linear_1_358)"/><path d="M75.675 101.12c-10.063-5.81-13.51-18.676-7.7-28.739 5.809-10.062 18.676-13.51 28.738-7.7 10.063 5.81 16.288 13.866 7.701 28.739-8.587 14.873-18.677 13.51-28.74 7.7z" fill="url(#paint2_linear_1_358)"/><ellipse cx="100.695" cy="91.273" rx="9.875" ry="11.163" transform="rotate(120 100.695 91.273)" fill="url(#paint3_linear_1_358)"/><path d="M53.288 65.11c10.062-5.81 22.929-2.361 28.739 7.701 5.81 10.063 2.361 22.93-7.701 28.739-10.063 5.81-20.152 7.173-28.74-7.7-8.586-14.875-2.36-22.93 7.703-28.74z" fill="url(#paint4_linear_1_358)"/><ellipse cx="49.304" cy="91.703" rx="9.875" ry="11.163" transform="rotate(-120 49.304 91.703)" fill="url(#paint5_linear_1_358)"/><circle cx="75.703" cy="75.415" r="16.53" fill="#fff"/><path d="M73.686 68.33l-3.352 8.588h9.446m-2.574-4.723v9.875" stroke="#FF7F24" stroke-width="3" stroke-miterlimit="10" stroke-linecap="round" stroke-linejoin="round"/><defs><linearGradient id="paint0_linear_1_358" x1="75.915" y1="41.281" x2="75.915" y2="83.358" gradientUnits="userSpaceOnUse"><stop stop-color="#00C11F" stop-opacity=".2"/><stop offset="1" stop-color="#00C11F"/></linearGradient><linearGradient id="paint1_linear_1_358" x1="75.916" y1="34.412" x2="75.916" y2="56.738" gradientUnits="userSpaceOnUse"><stop stop-color="#00C11F" stop-opacity=".5"/><stop offset="1" stop-color="#00C11F"/></linearGradient><linearGradient id="paint2_linear_1_358" x1="104.414" y1="93.42" x2="67.974" y2="72.382" gradientUnits="userSpaceOnUse"><stop stop-color="#0056FF" stop-opacity=".2"/><stop offset="1" stop-color="#0056FF"/></linearGradient><linearGradient id="paint3_linear_1_358" x1="100.695" y1="80.11" x2="100.695" y2="102.436" gradientUnits="userSpaceOnUse"><stop stop-color="#0056FF" stop-opacity=".5"/><stop offset="1" stop-color="#0056FF"/></linearGradient><linearGradient id="paint4_linear_1_358" x1="45.587" y1="93.849" x2="82.026" y2="72.811" gradientUnits="userSpaceOnUse"><stop stop-color="#F4E951" stop-opacity=".2"/><stop offset="1" stop-color="#F4E951"/></linearGradient><linearGradient id="paint5_linear_1_358" x1="49.304" y1="80.539" x2="49.304" y2="102.866" gradientUnits="userSpaceOnUse"><stop stop-color="#F4E951" stop-opacity=".5"/><stop offset="1" stop-color="#F4E951"/></linearGradient></defs></svg>