<svg width="160" height="48" fill="none" xmlns="http://www.w3.org/2000/svg"><g clip-path="url(#clip0_1_670)"><path d="M154.074 48H5.926C2.607 48 0 45.24 0 42V6c0-3.36 2.726-6 5.926-6h148.148C157.393 0 160 2.76 160 6v36c0 3.36-2.607 6-5.926 6z" fill="#000"/><path d="M56.178 12.241c0 .96-.237 1.8-.83 2.4-.711.72-1.54 1.08-2.608 1.08-1.066 0-1.896-.36-2.607-1.08-.711-.72-1.067-1.56-1.067-2.64s.356-1.92 1.067-2.64c.711-.72 1.54-1.08 2.607-1.08.475 0 .949.12 1.423.36.474.24.83.48 1.066.84l-.592.6c-.474-.6-1.067-.84-1.897-.84-.71 0-1.422.24-1.896.84-.592.48-.83 1.2-.83 2.04 0 .84.238 1.56.83 2.04.593.48 1.185.84 1.896.84.83 0 1.423-.24 2.015-.84a2 2 0 00.593-1.44H52.74v-.96h3.438v.48zm5.451-2.999h-3.2v2.28h2.963v.84h-2.963v2.28h3.2v.96H57.48v-7.2h4.148v.84zm3.912 6.36h-.948v-6.36h-2.015v-.84h4.978v.84H65.54v6.36zm5.451 0v-7.2h.948v7.2h-.948zm4.978 0h-.947v-6.36h-2.015v-.84h4.86v.84h-2.016v6.36h.119zm11.26-.961c-.71.72-1.54 1.08-2.607 1.08-1.066 0-1.896-.36-2.607-1.08-.711-.72-1.067-1.56-1.067-2.64s.356-1.92 1.067-2.64c.711-.72 1.54-1.08 2.607-1.08 1.067 0 1.897.36 2.608 1.08.71.72 1.066 1.56 1.066 2.64s-.355 1.92-1.066 2.64zm-4.503-.6c.474.48 1.185.84 1.896.84.711 0 1.422-.24 1.897-.84.474-.48.83-1.2.83-2.04 0-.84-.238-1.56-.83-2.04-.474-.48-1.186-.84-1.897-.84-.71 0-1.422.24-1.896.84-.474.48-.83 1.2-.83 2.04 0 .84.237 1.56.83 2.04zm6.875 1.561v-7.2h1.066l3.437 5.64v-5.64h.948v7.2h-.948l-3.674-5.88v5.88h-.83z" fill="#fff" stroke="#fff" stroke-width=".2" stroke-miterlimit="10"/><path d="M80.71 26.16c-2.843 0-5.095 2.16-5.095 5.16 0 2.88 2.252 5.16 5.096 5.16 2.844 0 5.096-2.16 5.096-5.16 0-3.12-2.252-5.16-5.096-5.16zm0 8.16c-1.54 0-2.843-1.32-2.843-3.12s1.303-3.12 2.844-3.12c1.54 0 2.844 1.2 2.844 3.12 0 1.8-1.303 3.12-2.844 3.12zm-11.02-8.16c-2.845 0-5.097 2.16-5.097 5.16 0 2.88 2.252 5.16 5.097 5.16 2.844 0 5.096-2.16 5.096-5.16 0-3.12-2.252-5.16-5.096-5.16zm0 8.16c-1.541 0-2.845-1.32-2.845-3.12s1.304-3.12 2.845-3.12c1.54 0 2.844 1.2 2.844 3.12 0 1.8-1.303 3.12-2.844 3.12zm-13.156-6.6v2.16h5.096c-.118 1.2-.592 2.16-1.185 2.76-.71.72-1.896 1.56-3.91 1.56-3.2 0-5.571-2.52-5.571-5.76 0-3.24 2.489-5.76 5.57-5.76 1.66 0 2.963.72 3.911 1.56l1.541-1.56c-1.304-1.2-2.963-2.16-5.333-2.16-4.267 0-7.941 3.6-7.941 7.92s3.674 7.92 7.94 7.92c2.371 0 4.03-.72 5.452-2.28C63.526 32.64 64 30.6 64 29.04c0-.48 0-.96-.119-1.32h-7.348zm53.808 1.68c-.475-1.2-1.66-3.24-4.267-3.24-2.608 0-4.741 2.04-4.741 5.16 0 2.88 2.133 5.16 4.978 5.16 2.252 0 3.674-1.44 4.148-2.28L108.8 33c-.593.84-1.304 1.44-2.489 1.44-1.185 0-1.896-.48-2.489-1.56l6.756-2.88-.237-.6zm-6.875 1.68c0-1.92 1.541-3 2.608-3 .83 0 1.659.48 1.896 1.08l-4.504 1.92zM97.896 36h2.252V21h-2.252v15zm-3.555-8.76c-.593-.6-1.541-1.2-2.726-1.2-2.49 0-4.86 2.28-4.86 5.16 0 2.88 2.252 5.04 4.86 5.04 1.185 0 2.133-.6 2.607-1.2h.119v.72c0 1.92-1.067 3-2.726 3-1.304 0-2.252-.96-2.49-1.8l-1.895.84c.592 1.32 2.014 3 4.503 3 2.608 0 4.74-1.56 4.74-5.28V26.4h-2.132v.84zm-2.608 7.08c-1.54 0-2.844-1.32-2.844-3.12s1.303-3.12 2.844-3.12c1.54 0 2.726 1.32 2.726 3.12s-1.185 3.12-2.726 3.12zM120.652 21h-5.334v15h2.252v-5.64h3.082c2.489 0 4.859-1.8 4.859-4.68s-2.37-4.68-4.859-4.68zm.118 7.2h-3.2v-5.16h3.2c1.659 0 2.608 1.44 2.608 2.52-.119 1.32-1.067 2.64-2.608 2.64zm13.63-2.16c-1.659 0-3.319.72-3.911 2.28l2.015.84c.474-.84 1.185-1.08 2.014-1.08 1.186 0 2.252.72 2.371 1.92v.12c-.356-.24-1.304-.6-2.252-.6-2.133 0-4.267 1.2-4.267 3.36 0 2.04 1.778 3.36 3.674 3.36 1.541 0 2.252-.72 2.845-1.44h.118V36h2.134v-5.76c-.237-2.64-2.252-4.2-4.741-4.2zm-.237 8.28c-.711 0-1.778-.36-1.778-1.32 0-1.2 1.304-1.56 2.37-1.56.949 0 1.423.24 2.015.48-.237 1.44-1.422 2.4-2.607 2.4zm12.444-7.92l-2.489 6.48H144l-2.608-6.48h-2.37l3.911 9.12-2.252 5.04h2.252l6.045-14.16h-2.371zM126.696 36h2.252V21h-2.252v15z" fill="#fff"/><path d="M12.326 9c-.356.36-.474.96-.474 1.68V37.2c0 .72.237 1.32.592 1.68l.119.12 14.696-14.88v-.24L12.326 9z" fill="url(#paint0_linear_1_670)"/><path d="M32 29.16l-4.86-4.92v-.36L32 18.96l.118.12 5.808 3.36c1.66.96 1.66 2.52 0 3.48L32 29.16z" fill="url(#paint1_linear_1_670)"/><path d="M32.12 29.04L27.144 24 12.328 39c.593.6 1.422.6 2.489.12l17.304-10.08z" fill="url(#paint2_linear_1_670)"/><path d="M32.12 18.96L14.818 9c-1.067-.6-1.896-.48-2.489.12L27.143 24l4.978-5.04z" fill="url(#paint3_linear_1_670)"/><path opacity=".2" d="M31.998 28.922l-17.185 9.84c-.948.6-1.778.48-2.37 0l-.119.12.119.12c.592.48 1.422.6 2.37 0l17.185-10.08z" fill="#000"/><path opacity=".12" d="M12.326 38.762c-.356-.36-.474-.96-.474-1.68v.12c0 .72.237 1.32.592 1.68v-.12h-.118zm25.6-13.202L32 28.92l.118.12 5.808-3.36c.83-.48 1.185-1.08 1.185-1.68 0 .6-.474 1.08-1.185 1.56z" fill="#000"/><path opacity=".25" d="M14.815 9.121l23.11 13.32c.712.48 1.186.96 1.186 1.56 0-.6-.356-1.2-1.185-1.68L14.815 9.002c-1.66-.96-2.963-.24-2.963 1.68v.12c0-1.8 1.303-2.64 2.963-1.68z" fill="#fff"/></g><defs><linearGradient id="paint0_linear_1_670" x1="25.836" y1="10.452" x2="5.699" y2="30.34" gradientUnits="userSpaceOnUse"><stop stop-color="#00A0FF"/><stop offset=".007" stop-color="#00A1FF"/><stop offset=".26" stop-color="#00BEFF"/><stop offset=".512" stop-color="#00D2FF"/><stop offset=".76" stop-color="#00DFFF"/><stop offset="1" stop-color="#00E3FF"/></linearGradient><linearGradient id="paint1_linear_1_670" x1="40.1" y1="24.003" x2="11.422" y2="24.003" gradientUnits="userSpaceOnUse"><stop stop-color="#FFE000"/><stop offset=".409" stop-color="#FFBD00"/><stop offset=".775" stop-color="orange"/><stop offset="1" stop-color="#FF9C00"/></linearGradient><linearGradient id="paint2_linear_1_670" x1="29.427" y1="26.755" x2="2.119" y2="53.726" gradientUnits="userSpaceOnUse"><stop stop-color="#FF3A44"/><stop offset="1" stop-color="#C31162"/></linearGradient><linearGradient id="paint3_linear_1_670" x1="8.651" y1=".211" x2="20.845" y2="12.255" gradientUnits="userSpaceOnUse"><stop stop-color="#32A071"/><stop offset=".069" stop-color="#2DA771"/><stop offset=".476" stop-color="#15CF74"/><stop offset=".801" stop-color="#06E775"/><stop offset="1" stop-color="#00F076"/></linearGradient><clipPath id="clip0_1_670"><path fill="#fff" d="M0 0h160v48H0z"/></clipPath></defs></svg>