<svg width="161" height="48" fill="none" xmlns="http://www.w3.org/2000/svg"><path d="M154.375 47.5H5.937C2.612 47.5 0 44.769 0 41.562V5.938C0 2.612 2.731 0 5.938 0h148.437c3.325 0 5.937 2.731 5.937 5.938v35.624c0 3.326-2.612 5.938-5.937 5.938z" fill="#000"/><path d="M36.58 24.107c0-3.325 2.73-4.869 2.85-4.988-1.544-2.256-3.92-2.493-4.75-2.612-2.02-.238-3.92 1.187-4.988 1.187-1.069 0-2.613-1.187-4.275-1.187-2.138 0-4.156 1.306-5.344 3.206-2.256 3.919-.594 9.856 1.663 13.063 1.068 1.543 2.375 3.325 4.037 3.325 1.663-.12 2.256-1.07 4.275-1.07 2.019 0 2.494 1.07 4.275 1.07 1.781 0 2.85-1.544 3.919-3.207 1.306-1.78 1.781-3.562 1.781-3.68 0 .118-3.444-1.188-3.444-5.107zm-3.327-9.619c.83-1.069 1.543-2.612 1.306-4.156-1.306 0-2.85.831-3.8 2.019-.831.95-1.544 2.493-1.306 4.037 1.425 0 2.968-.831 3.8-1.9zM57.36 32.184h-5.58l-1.306 4.037h-2.375l5.343-14.725h2.375l5.344 14.725h-2.375l-1.425-4.037zm-4.987-1.782h4.512l-2.256-6.53h-.119l-2.137 6.53zm20.307.475c0 3.325-1.782 5.463-4.513 5.463-1.544 0-2.731-.713-3.325-1.9v5.343h-2.256v-14.25h2.137v1.782c.594-1.188 1.9-1.9 3.444-1.9 2.613-.12 4.513 2.137 4.513 5.462zm-2.375 0c0-2.137-1.07-3.562-2.85-3.562-1.663 0-2.85 1.425-2.85 3.562 0 2.138 1.187 3.563 2.85 3.563 1.78 0 2.85-1.425 2.85-3.563zm14.129 0c0 3.325-1.782 5.463-4.513 5.463-1.544 0-2.731-.713-3.325-1.9v5.343H74.34v-14.25h2.137v1.782c.594-1.188 1.9-1.9 3.444-1.9 2.731-.12 4.513 2.137 4.513 5.462zm-2.257 0c0-2.137-1.068-3.562-2.85-3.562-1.662 0-2.85 1.425-2.85 3.562 0 2.138 1.188 3.563 2.85 3.563 1.782 0 2.85-1.425 2.85-3.563zm10.096 1.187c.118 1.425 1.543 2.375 3.562 2.375 1.9 0 3.206-.95 3.206-2.256 0-1.188-.83-1.781-2.73-2.256l-1.9-.475c-2.732-.713-3.92-1.9-3.92-3.92 0-2.493 2.257-4.274 5.344-4.274 3.088 0 5.225 1.781 5.344 4.275h-2.256c-.12-1.425-1.307-2.375-3.088-2.375-1.781 0-2.969.95-2.969 2.256 0 1.069.832 1.663 2.732 2.138l1.662.356c2.969.712 4.275 1.9 4.275 4.037 0 2.732-2.256 4.513-5.7 4.513-3.325 0-5.462-1.663-5.581-4.394h2.019zm13.775-9.142v2.494h2.019v1.78h-2.019v5.938c0 .95.357 1.307 1.307 1.307h.712v1.78c-.237.12-.712.12-1.187.12-2.138 0-2.969-.832-2.969-2.85v-6.175h-1.544v-1.782h1.544v-2.493h2.137v-.12zm3.323 7.955c0-3.325 2.019-5.463 5.106-5.463 3.088 0 5.107 2.138 5.107 5.463 0 3.443-2.019 5.462-5.107 5.462-3.206 0-5.106-2.137-5.106-5.462zm7.956 0c0-2.375-1.068-3.682-2.85-3.682-1.781 0-2.85 1.307-2.85 3.682s1.069 3.68 2.85 3.68c1.782 0 2.85-1.424 2.85-3.68zm4.04-5.463h2.138v1.9c.356-1.187 1.306-1.9 2.612-1.9.356 0 .594 0 .713.119v2.019c-.119-.12-.594-.12-.95-.12-1.425 0-2.257.95-2.257 2.495v6.412h-2.256V25.414zm15.675 7.602c-.356 1.9-2.256 3.325-4.631 3.325-3.088 0-5.106-2.138-5.106-5.463s1.9-5.581 4.987-5.581c2.969 0 4.869 2.019 4.869 5.344v.712h-7.6v.119c0 1.781 1.187 3.087 2.85 3.087 1.187 0 2.137-.593 2.494-1.543h2.137zm-7.481-3.207h5.344c0-1.662-1.069-2.73-2.613-2.73s-2.612 1.187-2.731 2.73zM52.015 10.332c2.137 0 3.325 1.306 3.325 3.563 0 2.256-1.188 3.562-3.325 3.562h-2.613v-7.125h2.613zm-1.425 6.175h1.306c1.425 0 2.375-.95 2.375-2.494 0-1.543-.831-2.493-2.375-2.493H50.59v4.987zm6.055-1.78c0-1.78.95-2.73 2.493-2.73 1.544 0 2.494 1.068 2.494 2.73 0 1.782-.95 2.732-2.494 2.732-1.544.118-2.493-.95-2.493-2.732zm3.918 0c0-1.187-.475-1.78-1.425-1.78-.95 0-1.425.712-1.425 1.78 0 1.188.475 1.9 1.425 1.9.95 0 1.425-.712 1.425-1.9zm7.837 2.73h-1.068l-1.069-3.919h-.119l-1.068 3.919h-1.069l-1.425-5.344h1.069l.95 4.038h.118l1.07-4.038h1.068l1.069 4.038h.118l.95-4.038h1.07L68.4 17.457zm2.733-5.342h1.069v.831h.118c.238-.594.832-.95 1.544-.95 1.188 0 1.9.713 1.9 2.019v3.444h-1.069v-3.207c0-.83-.356-1.306-1.187-1.306-.831 0-1.306.475-1.306 1.306v3.088h-1.07v-5.225zm6.176-2.138h1.068v7.48H77.31v-7.48zm2.491 4.75c0-1.78.95-2.73 2.495-2.73 1.543 0 2.493 1.068 2.493 2.73 0 1.782-.95 2.732-2.493 2.732-1.544.118-2.494-.95-2.494-2.732zm4.038 0c0-1.187-.475-1.78-1.425-1.78-.95 0-1.425.712-1.425 1.78 0 1.188.475 1.9 1.425 1.9.832 0 1.425-.712 1.425-1.9zm2.139 1.188c0-.95.712-1.544 2.018-1.544l1.425-.119v-.475c0-.593-.356-.83-1.068-.83-.594 0-.95.237-1.07.593h-1.068c.119-.95.95-1.544 2.138-1.544 1.306 0 2.137.713 2.137 1.781v3.682H89.42v-.713h-.118c-.357.594-.95.831-1.663.831-.95 0-1.662-.712-1.662-1.662zm3.443-.475v-.475l-1.306.119c-.712 0-1.069.356-1.069.712 0 .475.475.713.95.713.832.118 1.425-.357 1.425-1.07zm2.377-.713c0-1.663.831-2.732 2.256-2.732.713 0 1.306.357 1.663.95h.118V9.977h1.07v7.48h-1.07v-.83h-.118c-.357.593-.95.95-1.663.95-1.306 0-2.256-1.07-2.256-2.85zm1.187 0c0 1.187.594 1.78 1.425 1.78.832 0 1.425-.712 1.425-1.78 0-1.07-.593-1.782-1.425-1.782-.95 0-1.425.713-1.425 1.782zm8.192 0c0-1.78.95-2.73 2.494-2.73 1.543 0 2.493 1.068 2.493 2.73 0 1.782-.95 2.732-2.493 2.732-1.544.118-2.494-.95-2.494-2.732zm4.037 0c0-1.187-.475-1.78-1.425-1.78-.95 0-1.425.712-1.425 1.78 0 1.188.475 1.9 1.425 1.9.832 0 1.425-.712 1.425-1.9zm2.494-2.612h1.069v.831h.119c.237-.594.831-.95 1.543-.95 1.188 0 1.9.713 1.9 2.019v3.444h-1.068v-3.207c0-.83-.357-1.306-1.188-1.306s-1.306.475-1.306 1.306v3.088h-1.069v-5.225zm10.452-1.306v1.306h1.188v.95h-1.188v2.731c0 .594.238.831.713.831h.356v.832h-.594c-1.187 0-1.662-.357-1.662-1.425v-2.97h-.831v-.83h.831v-1.425h1.187zm2.611-.832h1.068v2.968h.119c.238-.593.831-.95 1.663-.95 1.187 0 1.9.713 1.9 2.02v3.443h-1.069v-3.206c0-.832-.356-1.307-1.188-1.307-.831 0-1.306.594-1.306 1.307v3.087h-1.069V9.977h-.118zm10.806 6.057c-.238.95-1.069 1.543-2.375 1.543-1.544 0-2.494-1.068-2.494-2.73 0-1.663.95-2.85 2.494-2.85 1.544 0 2.375 1.068 2.375 2.73v.357h-3.8c0 .95.594 1.543 1.425 1.543.594 0 1.069-.237 1.306-.593h1.069zm-3.8-1.782h2.731c0-.83-.594-1.425-1.306-1.425-.831.12-1.306.594-1.425 1.425z" fill="#fff"/></svg>