<svg width="63" height="55" fill="none" xmlns="http://www.w3.org/2000/svg"><path d="M45.835 18.856c0 7.85-6.364 14.214-14.215 14.214-7.85 0-14.214-6.364-14.214-14.214 0-7.85 2.61-14.215 14.214-14.215 11.604 0 14.215 6.364 14.215 14.215z" fill="url(#paint0_linear_1_333)"/><ellipse cx="31.621" cy="7.542" rx="6.672" ry="7.542" fill="url(#paint1_linear_1_333)"/><path d="M31.458 45.07c-6.799-3.925-9.128-12.619-5.203-19.417 3.925-6.799 12.618-9.128 19.417-5.203 6.799 3.925 11.005 9.368 5.203 19.417-5.802 10.05-12.619 9.128-19.417 5.203z" fill="url(#paint2_linear_1_333)"/><ellipse cx="48.362" cy="38.417" rx="6.672" ry="7.542" transform="rotate(120 48.362 38.417)" fill="url(#paint3_linear_1_333)"/><path d="M16.33 20.741c6.799-3.925 15.492-1.596 19.417 5.203 3.925 6.799 1.596 15.492-5.203 19.417-6.798 3.925-13.615 4.847-19.417-5.203C5.325 30.11 9.531 24.666 16.33 20.741z" fill="url(#paint4_linear_1_333)"/><ellipse cx="13.639" cy="38.708" rx="6.672" ry="7.542" transform="rotate(-120 13.64 38.708)" fill="url(#paint5_linear_1_333)"/><circle cx="31.475" cy="27.704" r="11.168" fill="#fff"/><path d="M45.835 18.856c0 7.85-6.364 14.214-14.215 14.214-7.85 0-14.214-6.364-14.214-14.214 0-7.85 2.61-14.215 14.214-14.215 11.604 0 14.215 6.364 14.215 14.215z" fill="url(#paint6_linear_1_333)"/><ellipse cx="31.621" cy="7.542" rx="6.672" ry="7.542" fill="url(#paint7_linear_1_333)"/><path d="M31.457 45.07c-6.798-3.925-9.128-12.619-5.202-19.418 3.925-6.798 12.618-9.128 19.417-5.202 6.799 3.925 11.005 9.368 5.203 19.417-5.802 10.049-12.619 9.128-19.418 5.203z" fill="url(#paint8_linear_1_333)"/><ellipse cx="48.362" cy="38.417" rx="6.672" ry="7.542" transform="rotate(120 48.362 38.417)" fill="url(#paint9_linear_1_333)"/><path d="M16.33 20.741c6.799-3.925 15.492-1.596 19.417 5.203 3.925 6.799 1.596 15.492-5.203 19.417-6.798 3.925-13.615 4.847-19.417-5.203C5.325 30.11 9.531 24.666 16.33 20.741z" fill="url(#paint10_linear_1_333)"/><ellipse cx="13.639" cy="38.708" rx="6.672" ry="7.542" transform="rotate(-120 13.64 38.708)" fill="url(#paint11_linear_1_333)"/><circle cx="31.475" cy="27.704" r="11.168" fill="#fff"/><path d="M27.186 30.68l-1.249-5.011v5.43c0 .3-.067.525-.202.676a.663.663 0 01-.526.225.675.675 0 01-.52-.22c-.135-.15-.202-.377-.202-.681v-6.224c0-.344.088-.575.265-.693.178-.121.417-.182.718-.182h.489c.294 0 .506.027.637.08a.54.54 0 01.298.29c.064.14.136.367.218.682l1.131 4.308 1.132-4.308c.082-.315.154-.542.218-.682a.54.54 0 01.292-.29c.135-.053.35-.08.643-.08h.489c.301 0 .54.06.717.182.177.119.266.35.266.693v6.224c0 .3-.067.525-.202.676a.669.669 0 01-.531.225.661.661 0 01-.516-.225c-.134-.15-.202-.376-.202-.676v-5.43l-1.248 5.011a9.469 9.469 0 01-.202.72.97.97 0 01-.282.412c-.138.125-.33.188-.574.188a.844.844 0 01-.765-.43 1.866 1.866 0 01-.17-.412l-.122-.478zm11.006-5.365h-1.721v5.714c0 .329-.073.574-.218.735a.731.731 0 01-.563.236.747.747 0 01-.574-.241c-.145-.161-.218-.405-.218-.73v-5.714h-1.722c-.269 0-.469-.06-.6-.178a.62.62 0 01-.197-.477.61.61 0 01.202-.483c.138-.118.337-.177.595-.177h5.016c.273 0 .475.06.606.182a.613.613 0 01.202.478.613.613 0 01-.202.477c-.135.119-.336.178-.606.178z" fill="#FF7F24"/><defs><linearGradient id="paint0_linear_1_333" x1="31.62" y1="4.641" x2="31.62" y2="33.07" gradientUnits="userSpaceOnUse"><stop stop-color="#00C11F" stop-opacity=".2"/><stop offset="1" stop-color="#00C11F"/></linearGradient><linearGradient id="paint1_linear_1_333" x1="31.621" y1="0" x2="31.621" y2="15.085" gradientUnits="userSpaceOnUse"><stop stop-color="#00C11F" stop-opacity=".5"/><stop offset="1" stop-color="#00C11F"/></linearGradient><linearGradient id="paint2_linear_1_333" x1="50.875" y1="39.867" x2="26.255" y2="25.653" gradientUnits="userSpaceOnUse"><stop stop-color="#0056FF" stop-opacity=".2"/><stop offset="1" stop-color="#0056FF"/></linearGradient><linearGradient id="paint3_linear_1_333" x1="48.362" y1="30.875" x2="48.362" y2="45.959" gradientUnits="userSpaceOnUse"><stop stop-color="#0056FF" stop-opacity=".5"/><stop offset="1" stop-color="#0056FF"/></linearGradient><linearGradient id="paint4_linear_1_333" x1="11.127" y1="40.158" x2="35.747" y2="25.944" gradientUnits="userSpaceOnUse"><stop stop-color="#F4E951" stop-opacity=".2"/><stop offset="1" stop-color="#F4E951"/></linearGradient><linearGradient id="paint5_linear_1_333" x1="13.639" y1="31.166" x2="13.639" y2="46.25" gradientUnits="userSpaceOnUse"><stop stop-color="#F4E951" stop-opacity=".5"/><stop offset="1" stop-color="#F4E951"/></linearGradient><linearGradient id="paint6_linear_1_333" x1="31.62" y1="4.641" x2="31.62" y2="33.07" gradientUnits="userSpaceOnUse"><stop stop-color="#00C11F" stop-opacity=".2"/><stop offset="1" stop-color="#00C11F"/></linearGradient><linearGradient id="paint7_linear_1_333" x1="31.621" y1="0" x2="31.621" y2="15.085" gradientUnits="userSpaceOnUse"><stop stop-color="#00C11F" stop-opacity=".5"/><stop offset="1" stop-color="#00C11F"/></linearGradient><linearGradient id="paint8_linear_1_333" x1="50.875" y1="39.867" x2="26.255" y2="25.652" gradientUnits="userSpaceOnUse"><stop stop-color="#0056FF" stop-opacity=".2"/><stop offset="1" stop-color="#0056FF"/></linearGradient><linearGradient id="paint9_linear_1_333" x1="48.362" y1="30.874" x2="48.362" y2="45.959" gradientUnits="userSpaceOnUse"><stop stop-color="#0056FF" stop-opacity=".5"/><stop offset="1" stop-color="#0056FF"/></linearGradient><linearGradient id="paint10_linear_1_333" x1="11.127" y1="40.158" x2="35.747" y2="25.944" gradientUnits="userSpaceOnUse"><stop stop-color="#F4E951" stop-opacity=".2"/><stop offset="1" stop-color="#F4E951"/></linearGradient><linearGradient id="paint11_linear_1_333" x1="13.639" y1="31.166" x2="13.639" y2="46.25" gradientUnits="userSpaceOnUse"><stop stop-color="#F4E951" stop-opacity=".5"/><stop offset="1" stop-color="#F4E951"/></linearGradient></defs></svg>