<svg width="91" height="26" fill="none" xmlns="http://www.w3.org/2000/svg"><path fill-rule="evenodd" clip-rule="evenodd" d="M49.055 23.87c-1.67-.98-2.99-2.35-3.96-4.11l3.824-9.038a13.98 13.98 0 00-.13 1.956c0 1.722.262 3.187.785 4.394.524 1.208 1.264 2.13 2.222 2.765.958.628 2.089.942 3.393.942 1.183 0 2.193-.21 3.03-.628.846-.426 1.49-1.026 1.932-1.799.428-.734.653-1.595.675-2.584h-5.311v-3.936h10.347v3.115c0 2.174-.459 4.041-1.376 5.603a9.38 9.38 0 01-3.792 3.598c-1.61.837-3.453 1.255-5.53 1.255-2.318 0-4.354-.51-6.109-1.533zm2.753-18.304a5.53 5.53 0 00-1.124.986l2.729-6.45A13.093 13.093 0 0155.056 0c1.4 0 2.705.205 3.912.616 1.207.402 2.278.974 3.211 1.714a9.282 9.282 0 012.307 2.644 8.983 8.983 0 011.147 3.357H60.32a5.422 5.422 0 00-.712-1.558 4.398 4.398 0 00-1.123-1.159 4.816 4.816 0 00-1.497-.736 6.327 6.327 0 00-1.848-.254c-1.263 0-2.374.314-3.332.942zm-8.757 7.136c0 2.696-.511 4.99-1.533 6.882-1.014 1.891-2.399 3.336-4.154 4.334-1.746.99-3.71 1.485-5.892 1.485-2.197 0-4.17-.499-5.916-1.497-1.747-.998-3.127-2.443-4.141-4.334-1.014-1.892-1.521-4.182-1.521-6.87 0-2.697.507-4.99 1.52-6.882 1.015-1.892 2.395-3.333 4.142-4.323C27.303.5 29.275 0 31.472 0c2.182 0 4.146.5 5.892 1.497 1.755.99 3.14 2.431 4.154 4.323 1.022 1.891 1.533 4.185 1.533 6.882zm-5.3 0c0-1.747-.262-3.22-.785-4.42-.515-1.199-1.244-2.108-2.185-2.728-.942-.62-2.045-.93-3.309-.93-1.263 0-2.366.31-3.308.93-.942.62-1.674 1.53-2.197 2.729-.515 1.199-.773 2.672-.773 4.419 0 1.746.258 3.22.773 4.419.523 1.2 1.255 2.109 2.197 2.728.942.62 2.045.93 3.308.93 1.264 0 2.367-.31 3.309-.93.941-.62 1.67-1.529 2.185-2.728.523-1.2.785-2.673.785-4.42zM0 25.065L10 .338h6.228L7.543 20.755h9.286v4.31H0zm82.556.242c-.527.064-1.068.096-1.623.096-2.197 0-4.17-.499-5.916-1.497-1.747-.998-3.127-2.443-4.141-4.334-1.014-1.892-1.522-4.182-1.522-6.87 0-2.697.508-4.99 1.522-6.882 1.014-1.892 2.394-3.333 4.141-4.323C76.764.5 78.736 0 80.933 0c2.182 0 4.146.5 5.892 1.497 1.698.958 3.049 2.338 4.053 4.14l-3.78 8.933a14.64 14.64 0 00.114-1.868c0-1.747-.262-3.22-.785-4.42-.515-1.199-1.244-2.108-2.186-2.728-.941-.62-2.044-.93-3.308-.93-1.264 0-2.366.31-3.308.93-.942.62-1.674 1.53-2.197 2.729-.516 1.199-.773 2.672-.773 4.419 0 1.746.257 3.22.773 4.419.523 1.2 1.255 2.109 2.197 2.728.942.62 2.044.93 3.308.93 1.264 0 2.367-.31 3.308-.93.354-.233.678-.506.972-.821l-2.657 6.28z" fill="#000"/></svg>