<svg width="301" height="266" fill="none" xmlns="http://www.w3.org/2000/svg"><path d="M221.359 91.74c0 37.681-30.547 68.227-68.228 68.227s-68.228-30.546-68.228-68.228c0-18.94 3.154-35.979 13.212-48.28 10.041-12.282 27.053-19.947 55.016-19.947 27.963 0 44.975 7.666 55.016 19.946 10.058 12.302 13.212 29.34 13.212 48.282z" stroke="#E8E1E1"/><path d="M184.897 37.039c0 19.924-14.276 35.968-31.76 35.968-17.485 0-31.76-16.044-31.76-35.968 0-19.924 14.275-35.968 31.76-35.968 17.484 0 31.76 16.044 31.76 35.968zm-32.299 181.023c-32.632-18.841-43.813-60.568-24.973-93.201 18.841-32.633 60.568-43.813 93.201-24.973 16.403 9.471 29.582 20.721 35.207 35.583 5.615 14.836 3.748 33.401-10.234 57.618-13.982 24.216-29.126 35.116-44.782 37.671-15.683 2.56-32.015-3.228-48.419-12.698z" stroke="#E8E1E1"/><path d="M218.203 213.83c-17.254-9.962-24.011-30.347-15.269-45.489 8.743-15.142 29.775-19.483 47.029-9.521 17.255 9.962 24.012 30.347 15.269 45.489-8.742 15.142-29.774 19.483-47.029 9.521zM79.463 101.29c32.633-18.84 74.36-7.66 93.201 24.973 18.84 32.633 7.659 74.36-24.973 93.201-16.404 9.47-32.736 15.258-48.42 12.699-15.655-2.556-30.8-13.455-44.78-37.672-13.982-24.217-15.85-42.782-10.235-57.618 5.625-14.862 18.803-26.112 35.207-35.583z" stroke="#E8E1E1"/><path d="M50.32 160.223c17.255-9.962 38.287-5.621 47.03 9.521 8.742 15.142 1.985 35.527-15.27 45.488-17.254 9.962-38.286 5.622-47.028-9.521-8.742-15.142-1.986-35.526 15.269-45.488z" stroke="#E8E1E1"/><circle cx="152.439" cy="134.52" r="53.5" fill="#F7F4F0" stroke="#E8E1E1"/></svg>