<svg width="100" height="100" fill="none" xmlns="http://www.w3.org/2000/svg"><path d="M3.448 0H0v3.448h3.448V0zm3.449 0H3.448v3.448h3.449V0zm3.448 0H6.897v3.448h3.448V0z" fill="#1D2B3F"/><path d="M13.793 0h-3.448v3.448h3.448V0zm3.448 0h-3.448v3.448h3.448V0z" fill="#1D2B3F"/><path d="M20.69 0h-3.45v3.448h3.449V0zm3.448 0H20.69v3.448h3.448V0zm6.897 0h-3.449v3.448h3.449V0z" fill="#1D2B3F"/><path d="M34.483 0h-3.448v3.448h3.448V0zm27.586 0h-3.448v3.448h3.448V0zm3.448 0H62.07v3.448h3.448V0z" fill="#1D2B3F"/><path d="M68.966 0h-3.449v3.448h3.449V0zm3.448 0h-3.448v3.448h3.448V0zm6.896 0h-3.448v3.448h3.448V0zm3.449 0H79.31v3.448h3.449V0zm3.448 0h-3.448v3.448h3.448V0zm3.448 0h-3.448v3.448h3.448V0zm3.448 0h-3.448v3.448h3.448V0zm3.449 0h-3.449v3.448h3.449V0zM100 0h-3.448v3.448H100V0zM3.448 3.448H0v3.449h3.448V3.448zm20.69 0H20.69v3.449h3.448V3.448zm10.345 0h-3.448v3.449h3.448V3.448zm6.897 0h-3.45v3.449h3.448V3.448z" fill="#1D2B3F"/><path d="M44.828 3.448h-3.449v3.449h3.449V3.448zm6.896 0h-3.448v3.449h3.448V3.448zm6.896 0h-3.448v3.449h3.449V3.448zm20.69 0h-3.448v3.449h3.448V3.448zm20.69 0h-3.448v3.449H100V3.448zM3.448 6.897H0v3.448h3.448V6.897zm6.897 0H6.897v3.448h3.448V6.897z" fill="#1D2B3F"/><path d="M13.793 6.897h-3.448v3.448h3.448V6.897zm3.448 0h-3.448v3.448h3.448V6.897zm6.897 0H20.69v3.448h3.448V6.897zm6.897 0h-3.449v3.448h3.449V6.897zm13.793 0h-3.449v3.448h3.449V6.897zm3.448 0h-3.448v3.448h3.448V6.897zm10.344 0h-3.448v3.448h3.449V6.897zm13.794 0h-3.448v3.448h3.448V6.897zm6.896 0h-3.448v3.448h3.448V6.897zm6.897 0h-3.448v3.448h3.448V6.897zm3.448 0h-3.448v3.448h3.448V6.897zm3.448 0h-3.448v3.448h3.448V6.897zm6.897 0h-3.448v3.448H100V6.897zM3.448 10.345H0v3.448h3.448v-3.448zm6.897 0H6.897v3.448h3.448v-3.448z" fill="#1D2B3F"/><path d="M13.793 10.345h-3.448v3.448h3.448v-3.448zm3.448 0h-3.448v3.448h3.448v-3.448zm6.897 0H20.69v3.448h3.448v-3.448zm6.897 0h-3.449v3.448h3.449v-3.448zm6.896 0h-3.448v3.448h3.448v-3.448z" fill="#1D2B3F"/><path d="M41.38 10.345h-3.45v3.448h3.448v-3.448zm6.896 0h-3.448v3.448h3.448v-3.448zm6.896 0h-3.448v3.448h3.448v-3.448zm6.897 0h-3.448v3.448h3.448v-3.448zm10.345 0h-3.448v3.448h3.448v-3.448zm6.896 0h-3.448v3.448h3.448v-3.448zm6.897 0h-3.448v3.448h3.448v-3.448zm3.448 0h-3.448v3.448h3.448v-3.448zm3.448 0h-3.448v3.448h3.448v-3.448zm6.897 0h-3.448v3.448H100v-3.448zM3.448 13.793H0v3.448h3.448v-3.448zm6.897 0H6.897v3.448h3.448v-3.448z" fill="#1D2B3F"/><path d="M13.793 13.793h-3.448v3.448h3.448v-3.448zm3.448 0h-3.448v3.448h3.448v-3.448zm6.897 0H20.69v3.448h3.448v-3.448zm6.897 0h-3.449v3.448h3.449v-3.448zm3.448 0h-3.448v3.448h3.448v-3.448zm10.345 0h-3.449v3.448h3.449v-3.448zm6.896 0h-3.448v3.448h3.448v-3.448zm10.345 0h-3.448v3.448h3.448v-3.448zm3.448 0H62.07v3.448h3.448v-3.448z" fill="#1D2B3F"/><path d="M68.966 13.793h-3.449v3.448h3.449v-3.448zm10.344 0h-3.448v3.448h3.448v-3.448zm6.897 0h-3.448v3.448h3.448v-3.448zm3.448 0h-3.448v3.448h3.448v-3.448zm3.448 0h-3.448v3.448h3.448v-3.448zm6.897 0h-3.448v3.448H100v-3.448zM3.448 17.241H0v3.449h3.448v-3.45zm20.69 0H20.69v3.449h3.448v-3.45zm6.897 0h-3.449v3.449h3.449v-3.45z" fill="#1D2B3F"/><path d="M34.483 17.241h-3.448v3.449h3.448v-3.45zm13.793 0h-3.448v3.449h3.448v-3.45zm10.344 0h-3.448v3.449h3.449v-3.45zm6.897 0H62.07v3.449h3.448v-3.45zm6.897 0h-3.448v3.449h3.448v-3.45zm6.896 0h-3.448v3.449h3.448v-3.45zm20.69 0h-3.448v3.449H100v-3.45zM3.448 20.69H0v3.448h3.448V20.69zm3.449 0H3.448v3.448h3.449V20.69zm3.448 0H6.897v3.448h3.448V20.69z" fill="#1D2B3F"/><path d="M13.793 20.69h-3.448v3.448h3.448V20.69zm3.448 0h-3.448v3.448h3.448V20.69z" fill="#1D2B3F"/><path d="M20.69 20.69h-3.45v3.448h3.449V20.69zm3.448 0H20.69v3.448h3.448V20.69zm6.897 0h-3.449v3.448h3.449V20.69zm6.896 0h-3.448v3.448h3.448V20.69zm6.897 0h-3.449v3.448h3.449V20.69zm6.896 0h-3.448v3.448h3.448V20.69zm6.896 0h-3.448v3.448h3.449V20.69zm6.897 0H62.07v3.448h3.448V20.69zm6.897 0h-3.448v3.448h3.448V20.69zm6.896 0h-3.448v3.448h3.448V20.69zm3.449 0H79.31v3.448h3.449V20.69zm3.448 0h-3.448v3.448h3.448V20.69zm3.448 0h-3.448v3.448h3.448V20.69zm3.448 0h-3.448v3.448h3.448V20.69zm3.449 0h-3.449v3.448h3.449V20.69zm3.448 0h-3.448v3.448H100V20.69zm-65.517 3.448h-3.448v3.448h3.448v-3.448zm6.897 0h-3.45v3.448h3.448v-3.448zm6.896 0h-3.448v3.448h3.448v-3.448zm6.896 0h-3.448v3.448h3.448v-3.448zm3.448 0h-3.448v3.448h3.449v-3.448zm6.897 0H62.07v3.448h3.448v-3.448zm-55.172 3.448H6.897v3.449h3.448v-3.449z" fill="#1D2B3F"/><path d="M13.793 27.586h-3.448v3.449h3.448v-3.449zm3.448 0h-3.448v3.449h3.448v-3.449z" fill="#1D2B3F"/><path d="M20.69 27.586h-3.45v3.449h3.449v-3.449zm3.448 0H20.69v3.449h3.448v-3.449z" fill="#1D2B3F"/><path d="M27.586 27.586h-3.448v3.449h3.448v-3.449zm48.276 0h-3.448v3.449h3.448v-3.449zm6.897 0H79.31v3.449h3.449v-3.449zm3.448 0h-3.448v3.449h3.448v-3.449zm3.448 0h-3.448v3.449h3.448v-3.449zm3.448 0h-3.448v3.449h3.448v-3.449zm6.897 0h-3.448v3.449H100v-3.449zM6.897 31.035H3.448v3.448h3.449v-3.448zm13.793 0h-3.45v3.448h3.449v-3.448zm6.896 0h-3.448v3.448h3.448v-3.448zm48.276 0h-3.448v3.448h3.448v-3.448zm3.448 0h-3.448v3.448h3.448v-3.448zm6.897 0h-3.448v3.448h3.448v-3.448zm6.896 0h-3.448v3.448h3.448v-3.448zm3.449 0h-3.449v3.448h3.449v-3.448zm3.448 0h-3.448v3.448H100v-3.448zM6.897 34.483H3.448v3.448h3.449v-3.448zm13.793 0h-3.45v3.448h3.449v-3.448zm3.448 0H20.69v3.448h3.448v-3.448z" fill="#1D2B3F"/><path d="M27.586 34.483h-3.448v3.448h3.448v-3.448zm48.276 0h-3.448v3.448h3.448v-3.448zm20.69 0h-3.449v3.448h3.449v-3.448zm3.448 0h-3.448v3.448H100v-3.448zm-13.793 3.448h-3.448v3.448h3.448v-3.448zm3.448 0h-3.448v3.448h3.448v-3.448zm3.448 0h-3.448v3.448h3.448v-3.448zm3.449 0h-3.449v3.448h3.449v-3.448zm3.448 0h-3.448v3.448H100v-3.448zM3.448 41.38H0v3.448h3.448v-3.449zm10.345 0h-3.448v3.448h3.448v-3.449zm3.448 0h-3.448v3.448h3.448v-3.449z" fill="#1D2B3F"/><path d="M20.69 41.38h-3.45v3.448h3.449v-3.449zm3.448 0H20.69v3.448h3.448v-3.449zm55.172 0h-3.448v3.448h3.448v-3.449zm10.345 0h-3.448v3.448h3.448v-3.449zm6.897 0h-3.449v3.448h3.449v-3.449zm-82.759 3.448h-3.448v3.448h3.448v-3.448zm82.759 0h-3.449v3.448h3.449v-3.448zm-86.207 3.448H6.897v3.448h3.448v-3.448z" fill="#1D2B3F"/><path d="M13.793 48.276h-3.448v3.448h3.448v-3.448zm6.897 0h-3.45v3.448h3.449v-3.448zm3.448 0H20.69v3.448h3.448v-3.448z" fill="#1D2B3F"/><path d="M27.586 48.276h-3.448v3.448h3.448v-3.448zm55.173 0H79.31v3.448h3.449v-3.448zm6.896 0h-3.448v3.448h3.448v-3.448zm10.345 0h-3.448v3.448H100v-3.448zM6.897 51.724H3.448v3.448h3.449v-3.448zm3.448 0H6.897v3.448h3.448v-3.448z" fill="#1D2B3F"/><path d="M13.793 51.724h-3.448v3.448h3.448v-3.448zm6.897 0h-3.45v3.448h3.449v-3.448zm6.896 0h-3.448v3.448h3.448v-3.448zm51.724 0h-3.448v3.448h3.448v-3.448zm3.449 0H79.31v3.448h3.449v-3.448zm10.344 0h-3.448v3.448h3.448v-3.448zM3.448 55.172H0v3.449h3.448v-3.449zm6.897 0H6.897v3.449h3.448v-3.449z" fill="#1D2B3F"/><path d="M13.793 55.172h-3.448v3.449h3.448v-3.449zm6.897 0h-3.45v3.449h3.449v-3.449zm3.448 0H20.69v3.449h3.448v-3.449zm51.724 0h-3.448v3.449h3.448v-3.449zm13.793 0h-3.448v3.449h3.448v-3.449zm3.448 0h-3.448v3.449h3.448v-3.449zm3.449 0h-3.449v3.449h3.449v-3.449zM3.448 58.62H0v3.449h3.448v-3.448z" fill="#1D2B3F"/><path d="M13.793 58.62h-3.448v3.449h3.448v-3.448zm79.31 0h-3.448v3.449h3.448v-3.448zm6.897 0h-3.448v3.449H100v-3.448zM3.448 62.069H0v3.448h3.448V62.07zm13.793 0h-3.448v3.448h3.448V62.07zm6.897 0H20.69v3.448h3.448V62.07zm51.724 0h-3.448v3.448h3.448V62.07zm17.241 0h-3.448v3.448h3.448V62.07zm6.897 0h-3.448v3.448H100V62.07zM3.448 65.517H0v3.449h3.448v-3.449zm6.897 0H6.897v3.449h3.448v-3.449z" fill="#1D2B3F"/><path d="M13.793 65.517h-3.448v3.449h3.448v-3.449zm3.448 0h-3.448v3.449h3.448v-3.449zm10.345 0h-3.448v3.449h3.448v-3.449zm51.724 0h-3.448v3.449h3.448v-3.449zm3.449 0H79.31v3.449h3.449v-3.449zm6.896 0h-3.448v3.449h3.448v-3.449zm3.448 0h-3.448v3.449h3.448v-3.449zm6.897 0h-3.448v3.449H100v-3.449zM3.448 68.966H0v3.448h3.448v-3.448zm6.897 0H6.897v3.448h3.448v-3.448zm10.345 0h-3.45v3.448h3.449v-3.448zm3.448 0H20.69v3.448h3.448v-3.448zm51.724 0h-3.448v3.448h3.448v-3.448zm3.448 0h-3.448v3.448h3.448v-3.448zm3.449 0H79.31v3.448h3.449v-3.448zm3.448 0h-3.448v3.448h3.448v-3.448zm10.345 0h-3.449v3.448h3.449v-3.448zm-10.345 3.448h-3.448v3.448h3.448v-3.448zm6.896 0h-3.448v3.448h3.448v-3.448zm6.897 0h-3.448v3.448H100v-3.448zM3.448 75.862H0v3.448h3.448v-3.448zm3.449 0H3.448v3.448h3.449v-3.448zm3.448 0H6.897v3.448h3.448v-3.448z" fill="#1D2B3F"/><path d="M13.793 75.862h-3.448v3.448h3.448v-3.448zm3.448 0h-3.448v3.448h3.448v-3.448z" fill="#1D2B3F"/><path d="M20.69 75.862h-3.45v3.448h3.449v-3.448zm3.448 0H20.69v3.448h3.448v-3.448zm55.172 0h-3.448v3.448h3.448v-3.448zm6.897 0h-3.448v3.448h3.448v-3.448zm6.896 0h-3.448v3.448h3.448v-3.448zm3.449 0h-3.449v3.448h3.449v-3.448zm3.448 0h-3.448v3.448H100v-3.448zM3.448 79.31H0v3.449h3.448V79.31zm20.69 0H20.69v3.449h3.448V79.31zm6.897 0h-3.449v3.449h3.449V79.31z" fill="#1D2B3F"/><path d="M34.483 79.31h-3.448v3.449h3.448V79.31zm10.345 0h-3.449v3.449h3.449V79.31zm3.448 0h-3.448v3.449h3.448V79.31zm10.344 0h-3.448v3.449h3.449V79.31zm3.449 0h-3.448v3.449h3.448V79.31zm10.345 0h-3.448v3.449h3.448V79.31zm13.793 0h-3.448v3.449h3.448V79.31zm3.448 0h-3.448v3.449h3.448V79.31zm3.448 0h-3.448v3.449h3.448V79.31zm6.897 0h-3.448v3.449H100V79.31zM3.448 82.759H0v3.448h3.448v-3.448zm6.897 0H6.897v3.448h3.448v-3.448z" fill="#1D2B3F"/><path d="M13.793 82.759h-3.448v3.448h3.448v-3.448zm3.448 0h-3.448v3.448h3.448v-3.448zm6.897 0H20.69v3.448h3.448v-3.448zm6.897 0h-3.449v3.448h3.449v-3.448zm3.448 0h-3.448v3.448h3.448v-3.448zm6.897 0h-3.45v3.448h3.448v-3.448zm6.896 0h-3.448v3.448h3.448v-3.448zm3.448 0h-3.448v3.448h3.448v-3.448zm3.448 0h-3.448v3.448h3.448v-3.448zm6.897 0h-3.448v3.448h3.448v-3.448zm3.448 0H62.07v3.448h3.448v-3.448zm6.897 0h-3.448v3.448h3.448v-3.448zm3.448 0h-3.448v3.448h3.448v-3.448zm3.448 0h-3.448v3.448h3.448v-3.448zm3.449 0H79.31v3.448h3.449v-3.448zm3.448 0h-3.448v3.448h3.448v-3.448zm6.896 0h-3.448v3.448h3.448v-3.448zm6.897 0h-3.448v3.448H100v-3.448zM3.448 86.207H0v3.448h3.448v-3.448zm6.897 0H6.897v3.448h3.448v-3.448z" fill="#1D2B3F"/><path d="M13.793 86.207h-3.448v3.448h3.448v-3.448zm3.448 0h-3.448v3.448h3.448v-3.448zm6.897 0H20.69v3.448h3.448v-3.448zm6.897 0h-3.449v3.448h3.449v-3.448zm10.345 0h-3.45v3.448h3.448v-3.448z" fill="#1D2B3F"/><path d="M44.828 86.207h-3.449v3.448h3.449v-3.448zm6.896 0h-3.448v3.448h3.448v-3.448zm6.896 0h-3.448v3.448h3.449v-3.448zm17.242 0h-3.448v3.448h3.448v-3.448zm3.448 0h-3.448v3.448h3.448v-3.448zm10.345 0h-3.448v3.448h3.448v-3.448zm3.448 0h-3.448v3.448h3.448v-3.448zm3.449 0h-3.449v3.448h3.449v-3.448zM3.448 89.655H0v3.448h3.448v-3.448zm6.897 0H6.897v3.448h3.448v-3.448z" fill="#1D2B3F"/><path d="M13.793 89.655h-3.448v3.448h3.448v-3.448zm3.448 0h-3.448v3.448h3.448v-3.448zm6.897 0H20.69v3.448h3.448v-3.448zm6.897 0h-3.449v3.448h3.449v-3.448zm13.793 0h-3.449v3.448h3.449v-3.448zm6.896 0h-3.448v3.448h3.448v-3.448zm6.896 0h-3.448v3.448h3.449v-3.448zm3.449 0h-3.448v3.448h3.448v-3.448zm3.448 0H62.07v3.448h3.448v-3.448zm6.897 0h-3.448v3.448h3.448v-3.448zm3.448 0h-3.448v3.448h3.448v-3.448zm3.448 0h-3.448v3.448h3.448v-3.448zm6.897 0h-3.448v3.448h3.448v-3.448zm3.448 0h-3.448v3.448h3.448v-3.448zm3.448 0h-3.448v3.448h3.448v-3.448zm6.897 0h-3.448v3.448H100v-3.448zM3.448 93.103H0v3.449h3.448v-3.449zm20.69 0H20.69v3.449h3.448v-3.449zm17.242 0h-3.45v3.449h3.448v-3.449zm13.792 0h-3.448v3.449h3.448v-3.449zm13.794 0h-3.449v3.449h3.449v-3.449zm3.448 0h-3.448v3.449h3.448v-3.449zm3.448 0h-3.448v3.449h3.448v-3.449zm6.897 0H79.31v3.449h3.449v-3.449zm6.896 0h-3.448v3.449h3.448v-3.449zm3.448 0h-3.448v3.449h3.448v-3.449zm3.449 0h-3.449v3.449h3.449v-3.449zM3.448 96.552H0V100h3.448v-3.448zm3.449 0H3.448V100h3.449v-3.448zm3.448 0H6.897V100h3.448v-3.448z" fill="#1D2B3F"/><path d="M13.793 96.552h-3.448V100h3.448v-3.448zm3.448 0h-3.448V100h3.448v-3.448z" fill="#1D2B3F"/><path d="M20.69 96.552h-3.45V100h3.449v-3.448zm3.448 0H20.69V100h3.448v-3.448zm10.345 0h-3.448V100h3.448v-3.448zm13.793 0h-3.448V100h3.448v-3.448zm13.793 0h-3.448V100h3.448v-3.448zm10.345 0h-3.448V100h3.448v-3.448zm3.448 0h-3.448V100h3.448v-3.448zm6.897 0H79.31V100h3.449v-3.448zm6.896 0h-3.448V100h3.448v-3.448z" fill="#1D2B3F"/></svg>